<?xml version="1.0" encoding="utf-8"?>
<!-- Generator: Adobe Illustrator 17.0.0, SVG Export Plug-In . SVG Version: 6.00 Build 0)  -->
<!DOCTYPE svg PUBLIC "-//W3C//DTD SVG 1.1//EN" "http://www.w3.org/Graphics/SVG/1.1/DTD/svg11.dtd">
<svg version="1.1" id="Layer_1" xmlns="http://www.w3.org/2000/svg" xmlns:xlink="http://www.w3.org/1999/xlink" x="0px" y="0px"
	 width="50px" height="50px" viewBox="0 0 50 50" enable-background="new 0 0 50 50" xml:space="preserve">
<g>
	<path fill="#0C866D" d="M37.372,44.954c0-4.768,0.013-9.455-0.011-14.141c-0.005-0.932-0.069-1.879-0.245-2.792
		c-0.476-2.47-2.041-3.826-4.281-3.815c-2.297,0.011-4.407,1.665-4.843,3.883c-0.163,0.826-0.195,1.687-0.198,2.533
		c-0.018,4.737-0.009,9.473-0.009,14.317c-2.979,0-5.895,0-8.892,0c0-9.012,0-18.023,0-27.135c2.902,0,5.818,0,8.859,0
		c0,1.124,0,2.22,0,3.586c0.344-0.308,0.512-0.415,0.624-0.564c2.713-3.622,6.421-4.338,10.535-3.368
		c3.979,0.938,6.121,3.777,7.039,7.624c0.206,0.863,0.36,1.762,0.365,2.646c0.032,5.712,0.017,11.424,0.017,17.227
		C43.402,44.954,40.478,44.954,37.372,44.954z"/>
	<path fill="#0C866D" d="M13.634,45c-2.985,0-5.882,0-8.873,0c0-9.056,0-18.068,0-27.189c2.905,0,5.831,0,8.873,0
		C13.634,26.8,13.634,35.843,13.634,45z"/>
	<path fill="#0C866D" d="M9.15,13.941c-2.902-0.01-4.956-1.913-4.995-4.629c-0.039-2.747,2.2-4.817,5.174-4.781
		c2.923,0.034,4.995,2.04,4.976,4.817C14.287,12.072,12.177,13.951,9.15,13.941z"/>
</g>
</svg>
