<?xml version="1.0" encoding="utf-8"?>
<!-- Generator: Adobe Illustrator 17.0.0, SVG Export Plug-In . SVG Version: 6.00 Build 0)  -->
<!DOCTYPE svg PUBLIC "-//W3C//DTD SVG 1.1//EN" "http://www.w3.org/Graphics/SVG/1.1/DTD/svg11.dtd">
<svg version="1.1" id="Layer_1" xmlns="http://www.w3.org/2000/svg" xmlns:xlink="http://www.w3.org/1999/xlink" x="0px" y="0px"
	 width="50px" height="50px" viewBox="0 0 50 50" enable-background="new 0 0 50 50" xml:space="preserve">
<g>
	<path fill="#0C866D" d="M3.271,24.938c0-3.298-0.099-6.6,0.021-9.894C3.538,8.306,8.278,3.489,15.018,3.326
		c6.626-0.16,13.261-0.16,19.887-0.002c6.791,0.162,11.581,4.964,11.748,11.784c0.161,6.593,0.161,13.196,0,19.788
		c-0.166,6.801-4.972,11.61-11.767,11.776c-6.593,0.161-13.196,0.163-19.788,0.001C8.233,46.504,3.541,41.719,3.286,34.832
		c-0.122-3.294-0.021-6.596-0.021-9.894C3.267,24.938,3.269,24.938,3.271,24.938z M25.082,7.045c-0.001,0.065,0,0-0.001,0.065
		c-3.002,0-6.004-0.007-9.006,0.007C15.583,7.12,15.093,7.222,14.6,7.27c-4.177,0.402-7.046,3.148-7.316,7.344
		c-0.243,3.78-0.266,7.579-0.272,11.369c-0.005,3.163,0.05,6.334,0.27,9.489c0.26,3.734,2.584,6.458,6.249,7.009
		c2.883,0.434,5.843,0.462,8.769,0.471c4.384,0.014,8.775-0.029,13.151-0.267c3.722-0.202,6.364-2.603,7.035-6.242
		c0.332-1.801,0.417-3.668,0.413-5.505c-0.011-5.44,0.009-10.886-0.235-16.318c-0.188-4.185-3.114-7.024-7.302-7.325
		C31.944,7.051,28.509,7.164,25.082,7.045z"/>
	<path fill="#0C866D" d="M25.018,13.778c6.253,0.013,11.202,5.008,11.18,11.285c-0.021,6.247-5.027,11.185-11.309,11.156
		c-6.202-0.029-11.136-5.01-11.131-11.235C13.763,18.725,18.748,13.764,25.018,13.778z M24.933,17.655
		c-4.013,0.048-7.295,3.348-7.299,7.339c-0.004,4.022,3.388,7.394,7.39,7.346c4.013-0.048,7.295-3.348,7.299-7.339
		C32.327,20.979,28.935,17.608,24.933,17.655z"/>
	<path fill="#0C866D" d="M36.657,15.897c-1.435-0.015-2.57-1.155-2.578-2.589c-0.008-1.454,1.206-2.671,2.641-2.647
		c1.382,0.023,2.58,1.226,2.596,2.607C39.332,14.704,38.11,15.912,36.657,15.897z"/>
</g>
</svg>
