<?xml version="1.0" encoding="utf-8"?>
<!-- Generator: Adobe Illustrator 17.0.0, SVG Export Plug-In . SVG Version: 6.00 Build 0)  -->
<!DOCTYPE svg PUBLIC "-//W3C//DTD SVG 1.1//EN" "http://www.w3.org/Graphics/SVG/1.1/DTD/svg11.dtd">
<svg version="1.1" id="Layer_1" xmlns="http://www.w3.org/2000/svg" xmlns:xlink="http://www.w3.org/1999/xlink" x="0px" y="0px"
	 width="249.123px" height="69.298px" viewBox="0 0 249.123 69.298" enable-background="new 0 0 249.123 69.298"
	 xml:space="preserve">
<g>
	<path fill="#0C866D" d="M28.125,39.72c0-0.211-0.096-0.422-0.144-0.581l-9.937-19.692c-0.144-0.316-0.192-0.581-0.192-0.792
		c0-1.373,1.872-2.323,3.216-2.323c0.816,0,1.248,0.423,1.68,1.268l7.921,16.736l7.873-16.736c0.384-0.845,0.864-1.268,1.68-1.268
		c1.344,0,3.168,0.95,3.168,2.323c0,0.211,0,0.476-0.144,0.792L33.31,39.139c-0.048,0.159-0.096,0.37-0.096,0.581v13.357
		c0,1.214-1.296,1.848-2.544,1.848c-1.296,0-2.544-0.634-2.544-1.848V39.72z"/>
	<path fill="#0C866D" d="M41.324,52.602c0-0.158,0-0.316,0.048-0.475l9.553-34.212c0.384-1.267,1.776-1.9,3.216-1.9
		c1.44,0,2.88,0.634,3.264,1.9l9.505,34.212c0.048,0.158,0.096,0.316,0.096,0.475c0,1.32-1.776,2.323-3.216,2.323
		c-0.816,0-1.488-0.316-1.729-1.161l-1.968-7.497H48.236l-1.968,7.497c-0.24,0.845-0.912,1.161-1.776,1.161
		C43.1,54.925,41.324,53.975,41.324,52.602z M58.942,41.778l-4.8-18.108l-4.8,18.108H58.942z"/>
	<path fill="#0C866D" d="M86.878,52.866L75.405,28.844v24.233c0,1.214-1.248,1.848-2.544,1.848c-1.248,0-2.544-0.634-2.544-1.848
		V18.179c0-1.319,1.248-1.848,2.544-1.848c1.824,0,2.688,0.739,3.84,3.168l10.657,22.86V18.126c0-1.267,1.296-1.795,2.544-1.795
		c1.296,0,2.544,0.528,2.544,1.795v34.951c0,1.214-1.248,1.848-2.544,1.848C88.654,54.925,87.55,54.238,86.878,52.866z"/>
	<path fill="#0C866D" d="M103.436,33.384h7.393c1.056,0,1.68,1.057,1.68,2.271c0,1.003-0.528,2.165-1.68,2.165h-7.393v12.143h14.257
		c1.056,0,1.68,1.162,1.68,2.534c0,1.161-0.528,2.429-1.68,2.429h-17.09c-1.104,0-2.256-0.634-2.256-1.848V18.179
		c0-1.214,1.152-1.848,2.256-1.848h17.09c1.152,0,1.68,1.268,1.68,2.429c0,1.373-0.625,2.534-1.68,2.534h-14.257V33.384z"/>
	<path fill="#0C866D" d="M128.108,33.384h7.393c1.056,0,1.68,1.057,1.68,2.271c0,1.003-0.528,2.165-1.68,2.165h-7.393v12.143h14.257
		c1.056,0,1.68,1.162,1.68,2.534c0,1.161-0.528,2.429-1.68,2.429h-17.09c-1.104,0-2.256-0.634-2.256-1.848V18.179
		c0-1.214,1.152-1.848,2.256-1.848h17.09c1.152,0,1.68,1.268,1.68,2.429c0,1.373-0.625,2.534-1.68,2.534h-14.257V33.384z"/>
	<path fill="#0C866D" d="M161.035,49.962h14.545c1.056,0,1.68,1.268,1.68,2.481c0,1.161-0.624,2.481-1.68,2.481h-19.442
		c-1.104,0-1.584-0.687-1.584-1.637c0-0.581,0.144-1.267,0.528-1.953l14.881-30.041h-13.009c-1.056,0-1.68-1.161-1.68-2.481
		c0-1.214,0.528-2.481,1.68-2.481h17.906c1.104,0,1.632,0.634,1.632,1.584c0,0.634-0.192,1.32-0.576,2.06L161.035,49.962z"/>
	<path fill="#0C866D" d="M197.804,37.133h-11.953v15.944c0,1.214-1.248,1.848-2.544,1.848c-1.248,0-2.544-0.634-2.544-1.848V18.126
		c0-1.267,1.296-1.795,2.544-1.795c1.296,0,2.544,0.528,2.544,1.795v14.572h11.953V18.126c0-1.267,1.296-1.795,2.544-1.795
		c1.297,0,2.545,0.528,2.545,1.795v34.951c0,1.214-1.248,1.848-2.545,1.848c-1.248,0-2.544-0.634-2.544-1.848V37.133z"/>
	<path fill="#0C866D" d="M225.499,18.126c0-1.267,1.248-1.795,2.544-1.795c1.248,0,2.544,0.528,2.544,1.795v25.342
		c0,8.554-4.8,11.773-10.992,11.773c-6.145,0-10.945-3.22-10.945-11.773V18.126c0-1.267,1.248-1.795,2.544-1.795
		c1.248,0,2.545,0.528,2.545,1.795v25.342c0,4.646,2.208,6.811,5.856,6.811c3.696,0,5.904-2.164,5.904-6.811V18.126z"/>
</g>
</svg>
